<svg xmlns="http://www.w3.org/2000/svg" viewBox="0 0 308 210"><defs><style>.cls-1{fill:#00ff48;}</style></defs><title>KamranAsset 1</title><g id="Layer_2" data-name="Layer 2"><g id="Layer_1-2" data-name="Layer 1"><polygon class="cls-1" points="55 147 88 27 251 27 219 147 186 147 209 59 177 60 155 147 120 147 144 60 112 60 89 147 55 147"/><path class="cls-1" d="M64.49,167.35h4.23v17H65.8V171.16l.12.75-3.26,10.58H59.83l-3.26-10.34.12-1v13.23H53.77v-17H58l3.24,11.49Z"/><path class="cls-1" d="M75.28,167.35h3.21v17H75.28Zm1.62,14H81a3.59,3.59,0,0,0,2.45-.76,2.75,2.75,0,0,0,.86-2.16v-5a2.75,2.75,0,0,0-.86-2.16,3.59,3.59,0,0,0-2.45-.76H76.9v-3.1h4a8.33,8.33,0,0,1,3.63.72,5.12,5.12,0,0,1,2.3,2.08,6.62,6.62,0,0,1,.78,3.31v4.83a6.62,6.62,0,0,1-.75,3.21,5.21,5.21,0,0,1-2.27,2.13,8.15,8.15,0,0,1-3.71.76h-4Z"/><path class="cls-1" d="M107,184.57l-1.39-.75a4.87,4.87,0,0,1-2.1-2.16,7.44,7.44,0,0,1-.73-3.44v-4.68a7.44,7.44,0,0,1,.73-3.44,5,5,0,0,1,2.1-2.17,6.94,6.94,0,0,1,3.33-.75,5.89,5.89,0,0,1,2.87.69,5.68,5.68,0,0,1,2.1,2,8.68,8.68,0,0,1,1.14,3.18h-3.33a4.26,4.26,0,0,0-.58-1.44,2.74,2.74,0,0,0-.95-.91,2.4,2.4,0,0,0-1.25-.32,2.94,2.94,0,0,0-1.53.37,2.33,2.33,0,0,0-1,1.08,4,4,0,0,0-.33,1.7v4.68a4,4,0,0,0,.33,1.7,2.4,2.4,0,0,0,1,1.07,3,3,0,0,0,1.53.37,2.68,2.68,0,0,0,1.27-.31,2.74,2.74,0,0,0,1-.91,4.22,4.22,0,0,0,.56-1.45H115a8.87,8.87,0,0,1-1.16,3.18,5.63,5.63,0,0,1-2.08,2,5.89,5.89,0,0,1-2.87.69Z"/><path class="cls-1" d="M122.88,183.79a5.37,5.37,0,0,1-2.18-2.2,6.76,6.76,0,0,1-.77-3.3v-4.83a6.76,6.76,0,0,1,.77-3.3,5.37,5.37,0,0,1,2.18-2.2,7.22,7.22,0,0,1,6.53,0,5.46,5.46,0,0,1,2.19,2.2,6.87,6.87,0,0,1,.77,3.3v4.83a6.87,6.87,0,0,1-.77,3.3,5.46,5.46,0,0,1-2.19,2.2,7.22,7.22,0,0,1-6.53,0Zm4.79-2.8a2.58,2.58,0,0,0,1-1.05,3.43,3.43,0,0,0,.35-1.57v-5a3.4,3.4,0,0,0-.35-1.57,2.46,2.46,0,0,0-1-1.05,3.31,3.31,0,0,0-3,0,2.46,2.46,0,0,0-1,1.05,3.28,3.28,0,0,0-.36,1.57v5a3.31,3.31,0,0,0,.36,1.57,2.58,2.58,0,0,0,1,1.05,3.31,3.31,0,0,0,3,0Z"/><path class="cls-1" d="M149.07,167.35h4.23v17h-2.92V171.16l.12.75-3.26,10.58H144.4l-3.26-10.34.12-1v13.23h-2.92v-17h4.23l3.25,11.49Z"/><path class="cls-1" d="M159.85,167.35h3.22v17h-3.22Zm1.47,7.34h5.45a2,2,0,0,0,1-.26,1.85,1.85,0,0,0,.69-.75,2.44,2.44,0,0,0,.24-1.1,2.52,2.52,0,0,0-.24-1.12,1.76,1.76,0,0,0-.68-.75,2,2,0,0,0-1-.26h-5.45v-3.1h5.37a5.87,5.87,0,0,1,2.8.65,4.63,4.63,0,0,1,1.88,1.84,5.94,5.94,0,0,1,0,5.48,4.58,4.58,0,0,1-1.88,1.82,5.87,5.87,0,0,1-2.8.64h-5.37Z"/><path class="cls-1" d="M181.42,167.35h2l6.52,17h-3.46l-4.08-11.63-4.07,11.63h-3.46ZM178,178.57h9v3.09h-9Z"/><path class="cls-1" d="M194.9,167.34h3.21v17H194.9Zm1.27,7.1h5.93a1.58,1.58,0,0,0,.87-.24,1.64,1.64,0,0,0,.58-.71,2.62,2.62,0,0,0,.22-1.05,2.46,2.46,0,0,0-.21-1.05,1.5,1.5,0,0,0-1.46-.95h-5.93v-3.1h6.19a4.66,4.66,0,0,1,2.47.64,4.27,4.27,0,0,1,1.66,1.78,6.48,6.48,0,0,1,0,5.36,4.27,4.27,0,0,1-1.66,1.78,4.71,4.71,0,0,1-2.47.64h-6.19Zm3.59,2.57,3.43-.54,4.6,7.92H203.9Z"/><path class="cls-1" d="M213.35,167.35h3.21v17h-3.21Zm1.16,0h10.25v3.1H214.51Zm0,7h9v3.09h-9Zm0,6.91h10.25v3.09H214.51Z"/><path class="cls-1" d="M230.5,167.34h3.21v17H230.5Zm1.28,7.1h5.93a1.54,1.54,0,0,0,.86-.24,1.58,1.58,0,0,0,.58-.71,2.73,2.73,0,0,0,0-2.1,1.64,1.64,0,0,0-.58-.71,1.61,1.61,0,0,0-.88-.24h-5.93v-3.1H238a4.7,4.7,0,0,1,2.48.64,4.24,4.24,0,0,1,1.65,1.78,6.38,6.38,0,0,1,0,5.36,4.2,4.2,0,0,1-1.66,1.78,4.69,4.69,0,0,1-2.47.64h-6.18Zm3.58,2.57,3.44-.54,4.59,7.92H239.5Z"/><path class="cls-1" d="M0,0V210H308V0ZM305,208H3V3H305Z"/></g></g></svg>